<svg width="409" height="242" viewBox="0 0 409 242" fill="none" xmlns="http://www.w3.org/2000/svg">
<g filter="url(#filter0_d_66_39)">
<rect x="2.625" y="2.71875" width="400" height="233" rx="25" fill="white"/>
</g>
<g clip-path="url(#clip0_66_39)">
<path d="M170.889 93.2514H89.9784C89.3155 93.2514 88.6796 93.532 88.2109 94.0315C87.7421 94.5311 87.4787 95.2086 87.4787 95.915C87.4787 96.6214 87.7421 97.2989 88.2109 97.7985C88.6796 98.298 89.3155 98.5786 89.9784 98.5786H170.889C171.552 98.5786 172.188 98.298 172.656 97.7985C173.125 97.2989 173.389 96.6214 173.389 95.915C173.389 95.2086 173.125 94.5311 172.656 94.0315C172.188 93.532 171.552 93.2514 170.889 93.2514Z" fill="#E6E6E6"/>
<path d="M115.065 78.3163H89.9784C89.3155 78.3163 88.6796 78.5969 88.2109 79.0964C87.7421 79.596 87.4787 80.2735 87.4787 80.9799C87.4787 81.6863 87.7421 82.3638 88.2109 82.8634C88.6796 83.3629 89.3155 83.6435 89.9784 83.6435H115.065C115.728 83.6435 116.364 83.3629 116.832 82.8634C117.301 82.3638 117.565 81.6863 117.565 80.9799C117.565 80.2735 117.301 79.596 116.832 79.0964C116.364 78.5969 115.728 78.3163 115.065 78.3163H115.065Z" fill="#E6E6E6"/>
<path d="M319.598 41.1355H84.8915C84.7817 41.1355 84.6764 41.0891 84.5987 41.0063C84.521 40.9235 84.4774 40.8113 84.4774 40.6942C84.4774 40.5772 84.521 40.465 84.5987 40.3822C84.6764 40.2995 84.7817 40.253 84.8915 40.253H319.598C319.708 40.253 319.813 40.2995 319.891 40.3822C319.969 40.465 320.012 40.5772 320.012 40.6942C320.012 40.8113 319.969 40.9235 319.891 41.0063C319.813 41.0891 319.708 41.1355 319.598 41.1355Z" fill="#E6E6E6"/>
<path d="M96.6345 27.8879C98.5687 27.8879 100.137 26.1799 100.137 24.0729C100.137 21.966 98.5687 20.258 96.6345 20.258C94.7002 20.258 93.1322 21.966 93.1322 24.0729C93.1322 26.1799 94.7002 27.8879 96.6345 27.8879Z" fill="#E6E6E6"/>
<path d="M108.733 27.8879C110.667 27.8879 112.235 26.1799 112.235 24.0729C112.235 21.966 110.667 20.258 108.733 20.258C106.799 20.258 105.231 21.966 105.231 24.0729C105.231 26.1799 106.799 27.8879 108.733 27.8879Z" fill="#E6E6E6"/>
<path d="M120.832 27.8879C122.766 27.8879 124.334 26.1799 124.334 24.0729C124.334 21.966 122.766 20.258 120.832 20.258C118.897 20.258 117.329 21.966 117.329 24.0729C117.329 26.1799 118.897 27.8879 120.832 27.8879Z" fill="#E6E6E6"/>
<path d="M134.627 27.0882C134.572 27.0882 134.518 27.0765 134.467 27.0537C134.416 27.0309 134.37 26.9975 134.331 26.9554L131.968 24.3814C131.892 24.299 131.85 24.1882 131.85 24.0728C131.85 23.9575 131.892 23.8467 131.968 23.7643L134.331 21.1905C134.369 21.1484 134.415 21.1147 134.465 21.0914C134.515 21.0681 134.569 21.0556 134.624 21.0547C134.678 21.0538 134.733 21.0644 134.783 21.086C134.834 21.1076 134.881 21.1397 134.92 21.1805C134.959 21.2212 134.99 21.2699 135.011 21.3236C135.033 21.3772 135.044 21.4349 135.044 21.4932C135.045 21.5515 135.034 21.6093 135.013 21.6633C134.993 21.7173 134.962 21.7663 134.923 21.8076L132.844 24.0728L134.923 26.3383C134.98 26.4004 135.019 26.4791 135.034 26.5644C135.049 26.6497 135.041 26.7379 135.009 26.818C134.977 26.8981 134.924 26.9664 134.856 27.0145C134.789 27.0625 134.709 27.0882 134.627 27.0882Z" fill="#E6E6E6"/>
<path d="M138.598 27.0881C138.517 27.0881 138.437 27.0625 138.369 27.0144C138.301 26.9664 138.248 26.898 138.217 26.818C138.185 26.7379 138.176 26.6497 138.192 26.5644C138.207 26.479 138.245 26.4004 138.302 26.3383L140.382 24.0728L138.302 21.8076C138.227 21.7236 138.185 21.6113 138.187 21.4951C138.189 21.3788 138.234 21.2679 138.312 21.1866C138.39 21.1053 138.495 21.0601 138.604 21.0608C138.713 21.0615 138.817 21.1081 138.894 21.1904L141.257 23.7643C141.333 23.8467 141.375 23.9575 141.375 24.0728C141.375 24.1882 141.333 24.2989 141.257 24.3814L138.894 26.9554C138.856 26.9975 138.81 27.0309 138.759 27.0537C138.708 27.0765 138.653 27.0882 138.598 27.0881Z" fill="#E6E6E6"/>
<path d="M298.668 20.6996H294.274C294.155 20.6996 294.037 20.7246 293.927 20.7731C293.817 20.8217 293.717 20.8929 293.633 20.9826C293.548 21.0724 293.482 21.1789 293.436 21.2962C293.39 21.4135 293.367 21.5391 293.367 21.6661V26.3525C293.367 26.4795 293.39 26.6051 293.436 26.7224C293.482 26.8397 293.548 26.9462 293.633 27.036C293.717 27.1257 293.817 27.1969 293.927 27.2455C294.037 27.294 294.155 27.319 294.274 27.319H298.668C298.909 27.3192 299.14 27.2176 299.311 27.0364C299.482 26.8553 299.578 26.6093 299.579 26.3525V21.6661C299.578 21.4093 299.482 21.1633 299.311 20.9822C299.14 20.801 298.909 20.6994 298.668 20.6996Z" fill="#E6E6E6"/>
<path d="M287.9 20.6996H283.506C283.387 20.6996 283.269 20.7246 283.159 20.7731C283.049 20.8217 282.949 20.8929 282.865 20.9826C282.781 21.0724 282.714 21.1789 282.668 21.2962C282.623 21.4135 282.599 21.5391 282.599 21.6661V26.3525C282.599 26.4795 282.623 26.6051 282.668 26.7224C282.714 26.8397 282.781 26.9462 282.865 27.036C282.949 27.1257 283.049 27.1969 283.159 27.2455C283.269 27.294 283.387 27.319 283.506 27.319H287.9C288.141 27.3192 288.373 27.2176 288.543 27.0364C288.714 26.8553 288.811 26.6093 288.811 26.3525V21.6661C288.811 21.4093 288.714 21.1633 288.543 20.9822C288.373 20.801 288.141 20.6994 287.9 20.6996Z" fill="#E6E6E6"/>
<path d="M308.814 20.9203H304.42C304.301 20.9203 304.183 20.9452 304.073 20.9938C303.963 21.0423 303.863 21.1135 303.779 21.2033C303.695 21.293 303.628 21.3996 303.582 21.5168C303.537 21.6341 303.513 21.7598 303.513 21.8867V26.5732C303.513 26.7001 303.537 26.8258 303.582 26.9431C303.628 27.0603 303.695 27.1669 303.779 27.2566C303.863 27.3464 303.963 27.4176 304.073 27.4661C304.183 27.5147 304.301 27.5396 304.42 27.5396H308.814C309.055 27.5399 309.287 27.4383 309.458 27.2571C309.628 27.0759 309.725 26.83 309.726 26.5732V21.8867C309.725 21.6299 309.628 21.384 309.458 21.2028C309.287 21.0216 309.055 20.92 308.814 20.9203Z" fill="#E6E6E6"/>
<path d="M219.807 22.7031H184.683C184.39 22.7031 184.109 22.8272 183.901 23.0482C183.694 23.2691 183.577 23.5688 183.577 23.8813C183.577 24.1938 183.694 24.4935 183.901 24.7144C184.109 24.9354 184.39 25.0595 184.683 25.0595H219.807C220.1 25.0595 220.381 24.9354 220.588 24.7144C220.796 24.4935 220.912 24.1938 220.912 23.8813C220.912 23.5688 220.796 23.2691 220.588 23.0482C220.381 22.8272 220.1 22.7031 219.807 22.7031Z" fill="#E6E6E6"/>
<path d="M125.663 183.75L104.659 183.043C101.746 182.944 98.4696 182.949 96.3917 184.554C94.0335 186.374 94.3906 189.6 96.3485 191.692C98.3065 193.784 101.433 194.98 104.501 195.951C120.804 201.114 138.846 202.163 156.364 200.994C173.882 199.826 191.04 196.523 208.113 193.232C209.733 192.92 211.568 192.471 212.228 191.27C212.867 190.108 212.031 188.707 210.733 187.957C209.434 187.206 207.788 186.953 206.201 186.73C177.44 182.702 148.368 181.819 119.438 184.092" fill="#5E12FF"/>
<path d="M163.4 166.537V161.242C159.794 161.296 146.888 161.202 143.522 161.242C143.271 179.75 141.735 176.124 155.966 176.196C156.62 176.199 157.246 176.477 157.708 176.971C158.17 177.464 158.43 178.132 158.431 178.829V178.909C158.431 179.607 158.17 180.276 157.707 180.77C157.244 181.263 156.615 181.541 155.96 181.541H143.522V186.836H163.4C163.428 186.818 163.38 181.723 163.4 181.541C164.241 166.199 162.578 171.717 150.493 171.102C149.953 171.072 149.443 170.823 149.071 170.404C148.698 169.986 148.49 169.431 148.491 168.854V168.787C148.491 168.191 148.714 167.618 149.11 167.196C149.506 166.774 150.043 166.537 150.603 166.537H163.4Z" fill="#3F3D56"/>
<path d="M187.835 166.537V161.242C184.228 161.296 171.323 161.202 167.956 161.242C167.703 179.91 166.143 176.059 180.774 176.199C181.331 176.205 181.863 176.445 182.254 176.866C182.645 177.287 182.865 177.856 182.865 178.449C182.865 178.727 182.865 179.012 182.865 179.291C182.865 179.586 182.81 179.879 182.704 180.152C182.598 180.425 182.442 180.673 182.246 180.882C182.05 181.091 181.817 181.257 181.561 181.37C181.305 181.483 181.03 181.541 180.753 181.541H167.956V186.836H187.835C187.863 186.818 187.815 181.723 187.835 181.541C188.675 166.199 187.012 171.717 174.928 171.102C174.387 171.072 173.878 170.823 173.505 170.404C173.132 169.986 172.925 169.43 172.926 168.854V168.787C172.926 168.191 173.148 167.618 173.544 167.196C173.94 166.774 174.477 166.537 175.038 166.537H187.835Z" fill="#3F3D56"/>
<path d="M137.724 166.537V161.242H117.845C117.831 165.965 117.855 178.466 117.845 183.306C113.948 190.335 136.085 185.468 137.725 186.838C137.724 186.836 137.724 181.541 137.724 181.541C122.599 181.457 122.219 184.473 122.705 169.878C122.734 168.981 123.089 168.132 123.694 167.509C124.299 166.886 125.108 166.537 125.949 166.537C130.322 166.537 137.724 166.537 137.724 166.537Z" fill="#3F3D56"/>
<path d="M177.016 120.498L156.012 119.909C153.099 119.827 149.823 119.831 147.745 121.168C145.387 122.686 145.744 125.375 147.702 127.119C149.66 128.863 152.787 129.859 155.855 130.669C172.157 134.973 190.199 135.847 207.718 134.873C225.236 133.899 242.394 131.146 259.467 128.402C261.086 128.142 262.921 127.768 263.582 126.767C264.22 125.799 263.385 124.631 262.086 124.005C260.788 123.379 259.142 123.168 257.554 122.982C228.744 119.624 199.718 118.888 170.791 120.784" fill="#5E12FF"/>
<path d="M173.34 97.2548C173.001 105.43 175.821 108.004 166.092 106.962C165.434 102.085 168.768 95.3167 161.123 97.0351C162.654 100.573 156.856 127.415 166.091 122.627C166.609 114.563 163.191 111.026 173.34 112.26C174.154 117.245 170.355 124.581 178.309 122.849C176.778 119.309 182.576 92.4695 173.34 97.2548Z" fill="#3F3D56"/>
<path d="M224.279 97.2548C224.961 97.7035 218.03 105.517 217.88 106.158C217.672 105.611 211.056 97.9663 211.855 97.2551C202.649 92.4075 208.386 119.405 206.883 122.851C206.885 122.849 211.855 122.849 211.855 122.849V106.081C218.84 116.121 217.543 114.431 224.279 105.588L224.279 122.849C233.485 127.699 227.748 100.697 229.251 97.2536C229.249 97.2548 224.279 97.2548 224.279 97.2548Z" fill="#3F3D56"/>
<path d="M202.33 97.2548H182.451C181.283 104.678 185.145 102.188 189.906 102.55L189.905 122.849H194.875V102.55C199.614 102.207 203.512 104.645 202.33 97.2548Z" fill="#3F3D56"/>
<path d="M238.36 117.554C237.212 110.843 237.212 103.966 238.36 97.2548H233.39C233.419 100.61 233.381 114.148 233.384 120.339C233.384 121.007 233.633 121.648 234.076 122.121C234.519 122.594 235.12 122.86 235.747 122.86C240.754 122.867 250.313 122.828 253.269 122.85L253.269 117.554H238.36Z" fill="#3F3D56"/>
<path d="M111.405 118.437H91.206C90.2174 118.437 89.2694 118.855 88.5704 119.6C87.8714 120.345 87.4787 121.355 87.4787 122.408C87.4787 123.462 87.8714 124.472 88.5704 125.217C89.2694 125.961 90.2174 126.38 91.206 126.38H111.405C112.394 126.38 113.342 125.961 114.041 125.217C114.74 124.472 115.133 123.462 115.133 122.408C115.133 121.355 114.74 120.345 114.041 119.6C113.342 118.855 112.394 118.437 111.405 118.437H111.405Z" fill="#E6E6E6"/>
<path d="M294.543 231.021L290.443 231.021L288.492 214.168L294.544 214.169L294.543 231.021Z" fill="#FFB6B6"/>
<path d="M294.688 235.579L282.078 235.579V235.409C282.078 234.022 282.595 232.692 283.516 231.711C284.436 230.731 285.685 230.18 286.986 230.179H286.986L289.29 228.318L293.587 230.18L294.688 230.18L294.688 235.579Z" fill="#2F2E41"/>
<path d="M309.038 231.021L304.938 231.021L302.987 214.168L309.039 214.169L309.038 231.021Z" fill="#FFB6B6"/>
<path d="M309.183 235.579L296.573 235.579V235.409C296.573 234.022 297.09 232.692 298.011 231.711C298.931 230.731 300.179 230.18 301.481 230.179H301.481L303.785 228.318L308.082 230.18L309.183 230.18L309.183 235.579Z" fill="#2F2E41"/>
<path d="M284.334 139.195C284.334 139.195 280.388 152.106 281.117 153.805C281.845 155.505 283.087 154.181 281.845 155.505C280.602 156.829 279.518 155.421 280.681 157.67C281.845 159.918 283.607 178.425 284.383 179.321C285.158 180.217 286.224 180.241 285.277 181.111C284.33 181.982 283.087 180.217 284.33 181.982C285.572 183.747 288.869 224.467 288.869 224.467H295.309C295.309 224.467 296.913 222.497 296.005 221.215C295.097 219.933 296.085 219.439 296.005 218.582C295.926 217.726 296.228 215.881 296.284 215.038C296.34 214.196 297.428 194.131 294.813 182.541L299.582 160.471L301.966 187.145C301.966 187.145 299.309 209.519 301.966 216.712C301.966 216.712 299.824 218.612 300.774 219.714C301.724 220.815 302.552 219.933 301.724 220.815C300.895 221.698 302.966 224.787 302.966 224.787L310.006 224.346L313.991 182.541C313.991 182.541 314.663 178.181 313.991 177.434C313.32 176.687 313.32 179.334 313.32 176.687V173.156C313.32 173.156 316.322 151.443 316.27 150.164C316.219 148.885 311.249 139.618 311.249 139.618L284.334 139.195Z" fill="#2F2E41"/>
<path d="M305.157 86.976L294.876 86.2226L291.8 91.391L284.392 94.6004V120.06C285.162 122.525 285.561 125.105 285.572 127.704C285.544 132.776 284.32 138.751 284.744 140.06C288.885 152.857 311.663 140.06 311.663 140.06L311.249 126.38L311.811 95.4634L307.156 91.5078L305.157 86.976Z" fill="#E6E6E6"/>
<path d="M283.917 144.722L283.208 136.672L278.836 136.462L279.869 144.944C279.604 145.361 279.453 145.848 279.434 146.351C279.414 146.854 279.527 147.353 279.759 147.792C279.991 148.23 280.333 148.591 280.747 148.834C281.161 149.077 281.631 149.192 282.103 149.166C282.574 149.14 283.03 148.974 283.419 148.687C283.807 148.401 284.113 148.004 284.301 147.542C284.489 147.081 284.553 146.572 284.485 146.074C284.417 145.575 284.22 145.107 283.917 144.722L283.917 144.722Z" fill="#FFB6B6"/>
<path d="M286.068 93.9215L285.947 93.9433C284.82 94.147 283.756 94.6403 282.848 95.3806C281.939 96.121 281.214 97.086 280.735 98.1922C279.483 101.077 275.418 120.043 277.2 122.904C278.582 125.122 278.246 124.689 277.596 126.362C276.947 128.036 275.9 126.25 276.758 128.906C277.616 131.561 278.558 131.183 277.762 132.209C276.966 133.235 276.149 133.034 276.923 134.752C277.698 136.471 277.572 137.051 277.718 137.698C277.864 138.345 277.737 142.897 277.737 142.897C277.737 142.897 282.407 142.519 284.731 143.703C284.731 143.703 283.434 139.106 284.168 138.37C284.901 137.634 285.78 137.545 285.153 136.473C284.525 135.402 283.101 135.357 284.651 134.822C286.2 134.287 285.701 124.692 285.701 124.692C288.254 117.569 287.245 105.854 286.068 93.9215Z" fill="#E6E6E6"/>
<path d="M314.227 145.296L314.554 137.219L318.911 136.774L318.28 145.301C318.565 145.703 318.738 146.181 318.782 146.683C318.825 147.184 318.736 147.688 318.525 148.139C318.314 148.589 317.989 148.968 317.587 149.233C317.185 149.498 316.722 149.638 316.249 149.637C315.777 149.636 315.314 149.495 314.912 149.23C314.511 148.964 314.187 148.585 313.977 148.134C313.767 147.683 313.679 147.178 313.723 146.677C313.768 146.176 313.942 145.698 314.227 145.296Z" fill="#FFB6B6"/>
<path d="M309.673 94.6763L309.796 94.6916C310.931 94.8344 312.017 95.2699 312.959 95.9605C313.901 96.6511 314.671 97.5759 315.202 98.6549C316.589 101.469 320.977 120.529 319.903 123.145C318.901 125.584 318.942 124.984 319.67 126.62C320.398 128.257 321.359 126.417 320.628 129.116C319.897 131.814 318.938 131.486 319.782 132.468C320.625 133.45 321.432 133.205 320.74 134.963C320.048 136.721 320.201 137.294 320.085 137.948C319.97 138.602 320.312 143.142 320.312 143.142C320.312 143.142 315.631 143.016 313.366 144.323C313.366 144.323 314.443 139.662 313.676 138.966C312.909 138.27 312.026 138.229 312.602 137.125C313.179 136.021 314.599 135.9 313.026 135.449C311.452 134.998 311.497 125.388 311.497 125.388L309.673 94.6763Z" fill="#E6E6E6"/>
<path d="M300.269 84.6042C304.697 84.6042 308.287 80.7787 308.287 76.0599C308.287 71.341 304.697 67.5156 300.269 67.5156C295.84 67.5156 292.25 71.341 292.25 76.0599C292.25 80.7787 295.84 84.6042 300.269 84.6042Z" fill="#FFB6B6"/>
<path d="M305.849 83.3736C306.964 82.4436 307.073 80.671 308.024 79.5535C309.616 77.6853 310.363 75.6752 309.53 73.4615C308.792 71.5035 308.949 69.0966 307.361 67.8362C308.141 67.5354 308.325 66.9107 307.637 66.8992C307.173 66.8914 305.443 67.8364 306.275 66.6592C307.107 65.482 305.532 65.9467 305.636 65.4648C305.74 64.983 306.408 64.7161 306.703 65.0981C306.454 64.8273 306.151 64.6206 305.816 64.4939C305.48 64.3671 305.122 64.3236 304.769 64.3667C304.416 64.4098 304.076 64.5383 303.776 64.7424C303.477 64.9466 303.225 65.2209 303.04 65.5446C302.102 64.0469 301.106 63.0164 299.671 63.9668C298.262 64.9003 298.28 66.0542 296.764 65.7768C296.052 65.6465 295.985 67.0809 295.498 67.6505C295.273 67.9533 294.98 68.1912 294.647 68.3427C294.314 68.4942 293.95 68.5544 293.589 68.5179C292.879 68.3749 292.335 67.4315 292.733 66.7884L291.059 70.8587L290.384 69.9767C289.312 70.7213 289.664 72.6642 290.744 73.3971C291.823 74.13 293.225 73.9734 294.469 73.6485C295.965 73.2574 297.509 73.1209 299.045 73.244C301.392 73.5973 303.026 76.5866 302.158 78.936C303.059 77.9927 304.727 78.7755 305.194 80.0266C305.661 81.2777 305.319 82.6872 304.972 83.9821" fill="#2F2E41"/>
</g>
<defs>
<filter id="filter0_d_66_39" x="0.625" y="0.71875" width="408" height="241" filterUnits="userSpaceOnUse" color-interpolation-filters="sRGB">
<feFlood flood-opacity="0" result="BackgroundImageFix"/>
<feColorMatrix in="SourceAlpha" type="matrix" values="0 0 0 0 0 0 0 0 0 0 0 0 0 0 0 0 0 0 127 0" result="hardAlpha"/>
<feOffset dx="2" dy="2"/>
<feGaussianBlur stdDeviation="2"/>
<feComposite in2="hardAlpha" operator="out"/>
<feColorMatrix type="matrix" values="0 0 0 0 0 0 0 0 0 0 0 0 0 0 0 0 0 0 0.2 0"/>
<feBlend mode="normal" in2="BackgroundImageFix" result="effect1_dropShadow_66_39"/>
<feBlend mode="normal" in="SourceGraphic" in2="effect1_dropShadow_66_39" result="shape"/>
</filter>
<clipPath id="clip0_66_39">
<rect width="287" height="233" fill="white" transform="translate(58.7344 2.625)"/>
</clipPath>
</defs>
</svg>
