<svg width="175" height="51" viewBox="0 0 175 51" fill="none" xmlns="http://www.w3.org/2000/svg">
<g id="NethavenLogo" filter="url(#filter0_b_35_311)">
<g id="Title">
<path id="n" d="M62 17.5V35H58.35L51.6 24.275V35H47.6V17.5H51.425L58 28.025V17.5H62Z" fill="black"/>
<path id="e" d="M77 30.05H68.4C68.55 30.8 68.8583 31.3583 69.325 31.725C69.8083 32.0917 70.4583 32.275 71.275 32.275C71.9917 32.275 72.6167 32.1583 73.15 31.925C73.6833 31.6917 74.2167 31.2917 74.75 30.725L76.65 32.525C76.1667 33.3417 75.4083 34 74.375 34.5C73.3583 35 72.25 35.25 71.05 35.25C69.0833 35.25 67.5417 34.6833 66.425 33.55C65.3083 32.4 64.75 30.8167 64.75 28.8C64.75 26.7667 65.3083 25.1667 66.425 24C67.5417 22.8333 69.075 22.25 71.025 22.25C72.8917 22.25 74.35 22.8333 75.4 24C76.4667 25.15 77 26.7417 77 28.775V30.05ZM73.5 27.525C73.5 26.7917 73.275 26.2167 72.825 25.8C72.375 25.3667 71.7583 25.15 70.975 25.15C70.275 25.15 69.7 25.375 69.25 25.825C68.8 26.2583 68.5 26.875 68.35 27.675H73.5V27.525Z" fill="black"/>
<path id="t" d="M83.85 35.25C82.5 35.25 81.45 34.9 80.7 34.2C79.9667 33.5 79.6 32.5167 79.6 31.25V25.125H77.325V22.5H79.6V19.325L83.05 18.325H83.15V22.5H86.8V25.125H83.15V30.7C83.15 31.3667 83.3167 31.8583 83.65 32.175C83.9833 32.475 84.5 32.625 85.2 32.625C85.8667 32.625 86.4833 32.5167 87.05 32.3L87.2 34.7C86.3667 35.0667 85.25 35.25 83.85 35.25Z" fill="black"/>
<path id="h" d="M89.1 16.45H92.65V23.825C93.0333 23.3417 93.5583 22.9583 94.225 22.675C94.9083 22.3917 95.6417 22.25 96.425 22.25C97.3417 22.25 98.1583 22.4583 98.875 22.875C99.5917 23.275 100.15 23.8667 100.55 24.65C100.95 25.4167 101.15 26.325 101.15 27.375V35H97.6V27.7C97.6 26.8333 97.4 26.15 97 25.65C96.6167 25.1333 96.0833 24.875 95.4 24.875C94.55 24.875 93.875 25.175 93.375 25.775C92.8917 26.3583 92.65 27.1667 92.65 28.2V35H89.1V16.45Z" fill="black"/>
<path id="a" d="M107.95 35.25C107.133 35.25 106.4 35.075 105.75 34.725C105.1 34.375 104.592 33.9 104.225 33.3C103.858 32.6833 103.675 31.9917 103.675 31.225C103.675 29.9417 104.192 28.9583 105.225 28.275C106.258 27.5917 107.742 27.25 109.675 27.25H111.425V26.75C111.425 26.1833 111.242 25.7417 110.875 25.425C110.508 25.1083 110.008 24.95 109.375 24.95C108.625 24.95 107.9 25.075 107.2 25.325C106.517 25.575 105.95 25.9167 105.5 26.35L103.975 24.325C104.692 23.6917 105.533 23.1917 106.5 22.825C107.483 22.4417 108.475 22.25 109.475 22.25C111.175 22.25 112.517 22.65 113.5 23.45C114.483 24.2333 114.975 25.3083 114.975 26.675V32.3C114.975 32.7 115.008 33.175 115.075 33.725C115.142 34.275 115.217 34.7 115.3 35H112.125C112.025 34.7667 111.95 34.5583 111.9 34.375C111.85 34.1917 111.808 33.9333 111.775 33.6H111.725C110.792 34.7 109.533 35.25 107.95 35.25ZM108.9 32.625C109.633 32.625 110.233 32.4417 110.7 32.075C111.183 31.6917 111.425 31.2083 111.425 30.625V29.575H109.575C108.792 29.575 108.192 29.7167 107.775 30C107.358 30.2833 107.15 30.6917 107.15 31.225C107.15 31.675 107.3 32.025 107.6 32.275C107.9 32.5083 108.333 32.625 108.9 32.625Z" fill="black"/>
<path id="v" d="M128.25 22.5L123.325 35H120.275L115.35 22.5H119L121.8 30.625L124.6 22.5H128.25Z" fill="black"/>
<path id="e_2" d="M142 30.05H133.4C133.55 30.8 133.858 31.3583 134.325 31.725C134.808 32.0917 135.458 32.275 136.275 32.275C136.992 32.275 137.617 32.1583 138.15 31.925C138.683 31.6917 139.217 31.2917 139.75 30.725L141.65 32.525C141.167 33.3417 140.408 34 139.375 34.5C138.358 35 137.25 35.25 136.05 35.25C134.083 35.25 132.542 34.6833 131.425 33.55C130.308 32.4 129.75 30.8167 129.75 28.8C129.75 26.7667 130.308 25.1667 131.425 24C132.542 22.8333 134.075 22.25 136.025 22.25C137.892 22.25 139.35 22.8333 140.4 24C141.467 25.15 142 26.7417 142 28.775V30.05ZM138.5 27.525C138.5 26.7917 138.275 26.2167 137.825 25.8C137.375 25.3667 136.758 25.15 135.975 25.15C135.275 25.15 134.7 25.375 134.25 25.825C133.8 26.2583 133.5 26.875 133.35 27.675H138.5V27.525Z" fill="black"/>
<path id="n_2" d="M143.075 25.85C143.075 24.3667 143.042 23.25 142.975 22.5H146.3C146.4 23.2667 146.45 23.9917 146.45 24.675H146.5C146.783 23.9583 147.3 23.375 148.05 22.925C148.817 22.475 149.667 22.25 150.6 22.25C152.033 22.25 153.117 22.7333 153.85 23.7C154.583 24.6667 154.95 26.1 154.95 28V35H151.4V27.975C151.4 26.975 151.242 26.25 150.925 25.8C150.608 25.35 150.1 25.125 149.4 25.125C148.567 25.125 147.892 25.4083 147.375 25.975C146.875 26.525 146.625 27.2583 146.625 28.175V35H143.075V25.85Z" fill="black"/>
<path id="&#226;&#132;&#162;" d="M159.75 19.025H157.5V17.5H163.85V19.025H161.6V25.675H159.75V19.025ZM164.6 17.5H166.525L169.125 23.075L171.75 17.5H173.675V25.675H171.85V20.875L169.575 25.675H168.7L166.425 20.875V25.675H164.6V17.5Z" fill="black"/>
</g>
<g id="Logo">
<g id="rightVector">
<g id="Side" filter="url(#filter1_d_35_311)">
<path d="M35.9702 6.81977L36.0231 38.5359C36.0271 40.8983 34.377 42.9412 32.0666 43.4343L26.8731 44.5426C25.5289 44.8295 24.1257 44.5503 22.9937 43.7707L21.9857 43.0765C21.2549 42.5732 21.4929 41.4381 22.3644 41.2708L26.9201 40.3964C29.2782 39.9437 30.9817 37.8787 30.9776 35.4776L30.9259 4.44369L35.9702 6.81977Z" fill="#5E12FF"/>
<path d="M35.9702 6.81977L36.0231 38.5359C36.0271 40.8983 34.377 42.9412 32.0666 43.4343L26.8731 44.5426C25.5289 44.8295 24.1257 44.5503 22.9937 43.7707L21.9857 43.0765C21.2549 42.5732 21.4929 41.4381 22.3644 41.2708L26.9201 40.3964C29.2782 39.9437 30.9817 37.8787 30.9776 35.4776L30.9259 4.44369L35.9702 6.81977Z" stroke="#7737FF"/>
</g>
<g id="Side_2" filter="url(#filter2_d_35_311)">
<path d="M34.9599 5.80408L35.0129 37.5202C35.0168 39.8827 33.3668 41.9255 31.0564 42.4186L25.8629 43.5269C24.5186 43.8138 23.1155 43.5346 21.9834 42.755L20.9755 42.0608C20.2446 41.5575 20.4827 40.4224 21.3542 40.2551L25.9098 39.3807C28.268 38.9281 29.9714 36.8631 29.9674 34.4619L29.9156 3.428L34.9599 5.80408Z" fill="#5E12FF"/>
<path d="M34.9599 5.80408L35.0129 37.5202C35.0168 39.8827 33.3668 41.9255 31.0564 42.4186L25.8629 43.5269C24.5186 43.8138 23.1155 43.5346 21.9834 42.755L20.9755 42.0608C20.2446 41.5575 20.4827 40.4224 21.3542 40.2551L25.9098 39.3807C28.268 38.9281 29.9714 36.8631 29.9674 34.4619L29.9156 3.428L34.9599 5.80408Z" stroke="#7737FF"/>
</g>
</g>
<g id="middleVector" filter="url(#filter3_di_35_311)">
<path d="M20.0143 41.009L13.2385 8.90591L17.2504 7.54601L20.3143 9.00112L27.3539 41.6062L23.5832 42.4527L20.0143 41.009Z" fill="#5E12FF"/>
<path d="M13.2385 8.90591L20.0143 41.009L23.5832 42.4527M13.2385 8.90591L16.5549 10.3554M13.2385 8.90591L17.2504 7.54601L20.3143 9.00112M23.5832 42.4527L27.3539 41.6062L20.3143 9.00112M23.5832 42.4527L16.5549 10.3554M20.3143 9.00112L16.5549 10.3554" stroke="#7737FF"/>
</g>
<g id="leftVector">
<g id="Side_3" filter="url(#filter4_d_35_311)">
<path d="M5.01025 42.169V10.4528C5.01025 8.09037 6.66373 6.05031 8.97495 5.56115L14.1702 4.46157C15.515 4.17695 16.9177 4.45851 18.0484 5.24005L19.0552 5.93592C19.7852 6.44046 19.5453 7.57514 18.6735 7.74094L14.1164 8.6077C11.7575 9.05635 10.0506 11.1185 10.0506 13.5196V44.5536L5.01025 42.169Z" fill="#5E12FF"/>
<path d="M5.01025 42.169V10.4528C5.01025 8.09037 6.66373 6.05031 8.97495 5.56115L14.1702 4.46157C15.515 4.17695 16.9177 4.45851 18.0484 5.24005L19.0552 5.93592C19.7852 6.44046 19.5453 7.57514 18.6735 7.74094L14.1164 8.6077C11.7575 9.05635 10.0506 11.1185 10.0506 13.5196V44.5536L5.01025 42.169Z" stroke="#7737FF"/>
</g>
<g id="Side_4" filter="url(#filter5_d_35_311)">
<path d="M4 41.1533V9.4371C4 7.07468 5.65347 5.03463 7.96469 4.54546L13.16 3.44588C14.5048 3.16127 15.9074 3.44282 17.0382 4.22436L18.045 4.92024C18.775 5.42478 18.535 6.55945 17.6633 6.72526L13.1061 7.59201C10.7473 8.04067 9.04037 10.1028 9.04037 12.504V43.5379L4 41.1533Z" fill="#5E12FF"/>
<path d="M4 41.1533V9.4371C4 7.07468 5.65347 5.03463 7.96469 4.54546L13.16 3.44588C14.5048 3.16127 15.9074 3.44282 17.0382 4.22436L18.045 4.92024C18.775 5.42478 18.535 6.55945 17.6633 6.72526L13.1061 7.59201C10.7473 8.04067 9.04037 10.1028 9.04037 12.504V43.5379L4 41.1533Z" stroke="#7737FF"/>
</g>
</g>
</g>
</g>
<defs>
<filter id="filter0_b_35_311" x="-0.5" y="-1.36084" width="178.175" height="50.7041" filterUnits="userSpaceOnUse" color-interpolation-filters="sRGB">
<feFlood flood-opacity="0" result="BackgroundImageFix"/>
<feGaussianBlur in="BackgroundImage" stdDeviation="2"/>
<feComposite in2="SourceAlpha" operator="in" result="effect1_backgroundBlur_35_311"/>
<feBlend mode="normal" in="SourceGraphic" in2="effect1_backgroundBlur_35_311" result="shape"/>
</filter>
<filter id="filter1_d_35_311" x="18.0519" y="1.65485" width="21.4713" height="47.4979" filterUnits="userSpaceOnUse" color-interpolation-filters="sRGB">
<feFlood flood-opacity="0" result="BackgroundImageFix"/>
<feColorMatrix in="SourceAlpha" type="matrix" values="0 0 0 0 0 0 0 0 0 0 0 0 0 0 0 0 0 0 127 0" result="hardAlpha"/>
<feOffset dy="1"/>
<feGaussianBlur stdDeviation="1.5"/>
<feComposite in2="hardAlpha" operator="out"/>
<feColorMatrix type="matrix" values="0 0 0 0 0 0 0 0 0 0 0 0 0 0 0 0 0 0 0.3 0"/>
<feBlend mode="normal" in2="BackgroundImageFix" result="effect1_dropShadow_35_311"/>
<feBlend mode="normal" in="SourceGraphic" in2="effect1_dropShadow_35_311" result="shape"/>
</filter>
<filter id="filter2_d_35_311" x="17.0416" y="0.63916" width="21.4713" height="47.4979" filterUnits="userSpaceOnUse" color-interpolation-filters="sRGB">
<feFlood flood-opacity="0" result="BackgroundImageFix"/>
<feColorMatrix in="SourceAlpha" type="matrix" values="0 0 0 0 0 0 0 0 0 0 0 0 0 0 0 0 0 0 127 0" result="hardAlpha"/>
<feOffset dy="1"/>
<feGaussianBlur stdDeviation="1.5"/>
<feComposite in2="hardAlpha" operator="out"/>
<feColorMatrix type="matrix" values="0 0 0 0 0 0 0 0 0 0 0 0 0 0 0 0 0 0 0.3 0"/>
<feBlend mode="normal" in2="BackgroundImageFix" result="effect1_dropShadow_35_311"/>
<feBlend mode="normal" in="SourceGraphic" in2="effect1_dropShadow_35_311" result="shape"/>
</filter>
<filter id="filter3_di_35_311" x="8.65759" y="7.00739" width="23.2897" height="43.9674" filterUnits="userSpaceOnUse" color-interpolation-filters="sRGB">
<feFlood flood-opacity="0" result="BackgroundImageFix"/>
<feColorMatrix in="SourceAlpha" type="matrix" values="0 0 0 0 0 0 0 0 0 0 0 0 0 0 0 0 0 0 127 0" result="hardAlpha"/>
<feOffset dy="4"/>
<feGaussianBlur stdDeviation="2"/>
<feComposite in2="hardAlpha" operator="out"/>
<feColorMatrix type="matrix" values="0 0 0 0 0 0 0 0 0 0 0 0 0 0 0 0 0 0 0.25 0"/>
<feBlend mode="normal" in2="BackgroundImageFix" result="effect1_dropShadow_35_311"/>
<feBlend mode="normal" in="SourceGraphic" in2="effect1_dropShadow_35_311" result="shape"/>
<feColorMatrix in="SourceAlpha" type="matrix" values="0 0 0 0 0 0 0 0 0 0 0 0 0 0 0 0 0 0 127 0" result="hardAlpha"/>
<feOffset dy="4"/>
<feGaussianBlur stdDeviation="2"/>
<feComposite in2="hardAlpha" operator="arithmetic" k2="-1" k3="1"/>
<feColorMatrix type="matrix" values="0 0 0 0 0 0 0 0 0 0 0 0 0 0 0 0 0 0 0.25 0"/>
<feBlend mode="normal" in2="shape" result="effect2_innerShadow_35_311"/>
</filter>
<filter id="filter4_d_35_311" x="1.51025" y="1.85321" width="21.4774" height="47.4901" filterUnits="userSpaceOnUse" color-interpolation-filters="sRGB">
<feFlood flood-opacity="0" result="BackgroundImageFix"/>
<feColorMatrix in="SourceAlpha" type="matrix" values="0 0 0 0 0 0 0 0 0 0 0 0 0 0 0 0 0 0 127 0" result="hardAlpha"/>
<feOffset dy="1"/>
<feGaussianBlur stdDeviation="1.5"/>
<feComposite in2="hardAlpha" operator="out"/>
<feColorMatrix type="matrix" values="0 0 0 0 0 0 0 0 0 0 0 0 0 0 0 0 0 0 0.3 0"/>
<feBlend mode="normal" in2="BackgroundImageFix" result="effect1_dropShadow_35_311"/>
<feBlend mode="normal" in="SourceGraphic" in2="effect1_dropShadow_35_311" result="shape"/>
</filter>
<filter id="filter5_d_35_311" x="0.5" y="0.837524" width="21.4774" height="47.4901" filterUnits="userSpaceOnUse" color-interpolation-filters="sRGB">
<feFlood flood-opacity="0" result="BackgroundImageFix"/>
<feColorMatrix in="SourceAlpha" type="matrix" values="0 0 0 0 0 0 0 0 0 0 0 0 0 0 0 0 0 0 127 0" result="hardAlpha"/>
<feOffset dy="1"/>
<feGaussianBlur stdDeviation="1.5"/>
<feComposite in2="hardAlpha" operator="out"/>
<feColorMatrix type="matrix" values="0 0 0 0 0 0 0 0 0 0 0 0 0 0 0 0 0 0 0.3 0"/>
<feBlend mode="normal" in2="BackgroundImageFix" result="effect1_dropShadow_35_311"/>
<feBlend mode="normal" in="SourceGraphic" in2="effect1_dropShadow_35_311" result="shape"/>
</filter>
</defs>
</svg>
